<?xml version="1.0" encoding="utf-8"?><svg xmlns="http://www.w3.org/2000/svg" xmlns:xlink="http://www.w3.org/1999/xlink"><symbol viewBox="0 0 15 14" id="1" xmlns="http://www.w3.org/2000/svg"><path d="M14.156 6.976c0 3.767-3.077 6.82-6.873 6.82a6.892 6.892 0 01-3.322-.85l-3.805 1.21 1.24-3.659A6.75 6.75 0 01.41 6.976c0-3.768 3.077-6.82 6.873-6.82 3.796 0 6.873 3.052 6.873 6.82zM7.283 1.242c-3.187 0-5.778 2.572-5.778 5.734 0 1.254.408 2.417 1.1 3.362l-.722 2.128 2.22-.705a5.784 5.784 0 003.18.947c3.186 0 5.778-2.57 5.778-5.732 0-3.162-2.592-5.734-5.778-5.734zm3.372 8.098c-.14.39-.829.767-1.137.796-.309.028-.309.251-2.022-.418-1.713-.669-2.794-2.413-2.878-2.525-.084-.109-.688-.905-.688-1.728 0-.822.435-1.227.59-1.395a.622.622 0 01.45-.208c.111 0 .224.013.322.013s.239-.055.379.279c.14.335.477 1.158.52 1.242.042.083.07.18.014.292-.056.113-.084.182-.169.278-.084.098-.177.219-.252.295-.085.081-.173.173-.074.34.098.168.436.714.937 1.157.643.57 1.186.746 1.354.83.17.084.267.07.365-.041.099-.113.422-.489.534-.657.112-.166.225-.14.38-.084.153.056.982.46 1.15.545.169.083.28.125.323.196.042.068.042.403-.098.793z"/></symbol><symbol viewBox="0 0 12 12" id="2" xmlns="http://www.w3.org/2000/svg"><path d="M10.383 5.058a.894.894 0 00-.001.127c.006.175.019.535-.388.596a.88.88 0 01-.116.008c-.436 0-.461-.395-.473-.585a1.461 1.461 0 00-.013-.139c-.27-1.59-.825-2.153-2.472-2.511-.04-.01-.09-.016-.14-.023-.176-.023-.395-.051-.52-.217a.462.462 0 01-.073-.372c.027-.154.127-.41.503-.41.095 0 .189.013.28.028.041.007.081.016.117.018 1.833.214 3.312 1.767 3.298 3.458l-.002.022zM5.986.489C5.997.306 6.081 0 6.525 0c.05 0 .1.004.144.007.036.002.07.004.098.004H6.8a.206.206 0 01.033-.004c2.785.092 5.198 2.554 5.163 5.27 0 .036.002.078.004.122.008.18.018.405-.13.555a.476.476 0 01-.352.131h-.015c-.476-.009-.483-.44-.486-.648a1.52 1.52 0 00-.008-.16C10.664 2.623 9.421 1.375 6.717.97a1.219 1.219 0 00-.134-.013C6.381.942 5.961.913 5.986.489zm5.572 9.764c-.338.93-1.44 1.746-2.357 1.746h-.016a.178.178 0 01-.049-.006 2.313 2.313 0 00-.114-.025c-.135-.03-.32-.071-.495-.145-1.951-.818-3.635-1.907-5.005-3.236-1.4-1.36-2.51-3.005-3.299-4.894C-.05 3.04-.062 2.412.19 1.877.45 1.323.973.905 1.7.667a1.26 1.26 0 01.838.002c.633.227 2.135 2.223 2.172 2.886.033.585-.428.889-.676 1.053-.436.289-.517.644-.269 1.186.513 1.123 1.41 1.975 2.666 2.529.156.07.298.104.424.104.212 0 .384-.102.526-.312.32-.472.709-.712 1.153-.712.331 0 .68.128 1.07.395.063.045.126.086.189.13a16.286 16.286 0 011.086.78c.434.325.976.728.68 1.545zM8.243 3.69c.379.376.601.846.596 1.261.014.396-.134.616-.44.65-.02.002-.04.004-.058.004-.255 0-.453-.201-.483-.487-.063-.615-.38-.948-.995-1.044-.17-.026-.356-.075-.453-.233-.067-.108-.073-.24-.02-.39.115-.326.442-.334.6-.337.416-.012.873.202 1.253.576z"/></symbol><symbol viewBox="0 0 14 9" id="3" xmlns="http://www.w3.org/2000/svg"><path d="M12.054 5.719c.464.514.954.999 1.37 1.566.185.25.359.51.492.803.189.415.018.874-.31.897h-2.04c-.526.05-.945-.192-1.298-.6-.282-.325-.544-.674-.816-1.01a2.015 2.015 0 00-.367-.373c-.278-.204-.52-.14-.679.19-.162.335-.199.704-.214 1.08-.022.544-.167.689-.65.712-1.03.056-2.01-.12-2.918-.712-.802-.52-1.423-1.255-1.964-2.087C1.607 4.565.8 2.785.076.956-.087.542.032.323.433.316 1.098.298 1.763.299 2.429.314c.27.004.45.18.554.47.36 1.005.8 1.96 1.353 2.846.148.237.298.472.512.638.236.185.416.123.527-.175a2.23 2.23 0 00.118-.598c.053-.698.06-1.397-.033-2.093-.057-.434-.272-.716-.654-.798C4.61.563 4.64.48 4.734.354 4.898.135 5.052 0 5.36 0h2.305c.362.08.443.265.493.68l.002 2.907c-.004.16.07.636.325.743.204.075.338-.11.46-.257.552-.665.946-1.452 1.298-2.265.156-.356.29-.729.42-1.1.097-.277.248-.412.522-.406l2.218.003c.066 0 .132.001.196.014.374.073.476.255.36.669-.181.65-.535 1.192-.881 1.736-.37.581-.766 1.143-1.133 1.728-.337.533-.31.802.109 1.266z"/></symbol><symbol viewBox="0 0 14 14" id="4" xmlns="http://www.w3.org/2000/svg"><path d="M14 4.066v5.868A4.071 4.071 0 019.933 14H4.067A4.072 4.072 0 010 9.934V4.066A4.072 4.072 0 014.067-.001h5.866A4.071 4.071 0 0114 4.066zm-1.094 0a2.976 2.976 0 00-2.973-2.972H4.067a2.976 2.976 0 00-2.973 2.972v5.868a2.977 2.977 0 002.973 2.973h5.866a2.977 2.977 0 002.973-2.973zM10.773 7A3.778 3.778 0 017 10.773 3.778 3.778 0 013.227 7 3.777 3.777 0 017 3.227 3.777 3.777 0 0110.773 7zM9.68 7A2.683 2.683 0 007 4.32 2.683 2.683 0 004.32 7 2.683 2.683 0 007 9.68 2.683 2.683 0 009.68 7zm1.148-4.375a.548.548 0 11-.002 1.096.548.548 0 01.002-1.096z"/><path d="M14 4.066v5.868A4.071 4.071 0 019.933 14H4.067A4.072 4.072 0 010 9.934V4.066A4.072 4.072 0 014.067-.001h5.866A4.071 4.071 0 0114 4.066zm-1.094 0a2.976 2.976 0 00-2.973-2.972H4.067a2.976 2.976 0 00-2.973 2.972v5.868a2.977 2.977 0 002.973 2.973h5.866a2.977 2.977 0 002.973-2.973zM10.773 7A3.778 3.778 0 017 10.773 3.778 3.778 0 013.227 7 3.777 3.777 0 017 3.227 3.777 3.777 0 0110.773 7zM9.68 7A2.683 2.683 0 007 4.32 2.683 2.683 0 004.32 7 2.683 2.683 0 007 9.68 2.683 2.683 0 009.68 7zm1.148-4.375a.548.548 0 11-.002 1.096.548.548 0 01.002-1.096z"/></symbol><symbol viewBox="0 0 17 30" id="5" xmlns="http://www.w3.org/2000/svg"><path d="M.612 16.466L13.449 29.36c.817.82 2.14.82 2.957 0a2.107 2.107 0 000-2.97L5.047 14.98 16.406 3.575a2.11 2.11 0 000-2.971 2.085 2.085 0 00-2.957 0L.611 13.497c-.408.41-.611.948-.611 1.484 0 .54.204 1.076.612 1.485z"/></symbol><symbol viewBox="0 0 17 31" id="6" xmlns="http://www.w3.org/2000/svg"><path d="M16.396 16.685L3.724 29.579a2.04 2.04 0 01-2.919 0 2.126 2.126 0 010-2.97l11.213-11.408L.805 3.791a2.125 2.125 0 010-2.968 2.037 2.037 0 012.919 0l12.672 12.893c.403.41.604.948.604 1.485 0 .536-.202 1.074-.604 1.484z"/></symbol><symbol viewBox="0 0 90 90" id="7" xmlns="http://www.w3.org/2000/svg"><path d="M45 0c24.853 0 45 20.147 45 45S69.853 90 45 90 0 69.853 0 45 20.147 0 45 0z"/><path d="M54.085 43.934l-14.278-9.262c-.422-.258-.947-.215-1.342-.215-1.584 0-1.577 1.259-1.577 1.578v18.931c0 .269-.007 1.577 1.577 1.577.395 0 .92.043 1.342-.215l14.278-9.263c1.172-.718.969-1.565.969-1.565s.203-.847-.97-1.566z" opacity=".2"/></symbol><symbol viewBox="0 0 14 14" id="8" xmlns="http://www.w3.org/2000/svg"><path d="M14.018 7a6.95 6.95 0 01-2.051 4.949 6.952 6.952 0 01-4.95 2.05 6.952 6.952 0 01-4.949-2.05A6.951 6.951 0 01.018 7c0-1.87.728-3.628 2.05-4.95A6.952 6.952 0 017.018 0c1.87 0 3.627.728 4.949 2.05A6.955 6.955 0 0114.017 7zm-.438 0a6.52 6.52 0 00-1.922-4.64A6.52 6.52 0 007.018.437a6.519 6.519 0 00-4.64 1.921A6.52 6.52 0 00.454 7.001c0 1.752.683 3.4 1.922 4.639a6.511 6.511 0 004.64 1.921 6.51 6.51 0 004.64-1.921A6.518 6.518 0 0013.58 7zM8.797 4.104c.416.378.626.912.626 1.586 0 .67-.21 1.205-.626 1.582-.593.543-1.434.61-1.816.61-.117 0-.19-.005-.202-.006H5.486v.875h1.531v.437h-1.53V10.5h-.438V9.187h-.875V8.75h.875v-.875h-.875v-.438h.875V3.5h1.75c.03-.004 1.225-.103 1.998.603zm.19 1.586c0-.546-.164-.97-.485-1.264-.632-.575-1.673-.49-1.684-.488H5.486v3.5H6.8c.03.002 1.076.087 1.705-.489.32-.294.482-.717.482-1.26z" opacity=".5"/></symbol><symbol viewBox="0 0 16 10" id="9" xmlns="http://www.w3.org/2000/svg"><path d="M.075 1.634a.559.559 0 01-.168-.404c0-.154.056-.293.168-.405a.577.577 0 01.811 0l7.131 7.106L15.148.825a.577.577 0 01.811 0 .571.571 0 010 .81L8.423 9.142a.575.575 0 01-.811 0z" opacity=".3"/></symbol></svg>