<svg xmlns="http://www.w3.org/2000/svg" width="15" height="14" viewBox="0 0 15 14"><g><g><path fill="#fff" d="M14.156 6.976c0 3.767-3.077 6.82-6.873 6.82a6.892 6.892 0 0 1-3.322-.85l-3.805 1.21 1.24-3.659A6.75 6.75 0 0 1 .41 6.976c0-3.768 3.077-6.82 6.873-6.82 3.796 0 6.873 3.052 6.873 6.82zM7.283 1.242c-3.187 0-5.778 2.572-5.778 5.734 0 1.254.408 2.417 1.1 3.362l-.722 2.128 2.22-.705a5.784 5.784 0 0 0 3.18.947c3.186 0 5.778-2.57 5.778-5.732 0-3.162-2.592-5.734-5.778-5.734zm3.372 8.098c-.14.39-.829.767-1.137.796-.309.028-.309.251-2.022-.418-1.713-.669-2.794-2.413-2.878-2.525-.084-.109-.688-.905-.688-1.728 0-.822.435-1.227.59-1.395a.622.622 0 0 1 .45-.208c.111 0 .224.013.322.013s.239-.055.379.279c.14.335.477 1.158.52 1.242.042.083.07.18.014.292-.056.113-.084.182-.169.278-.084.098-.177.219-.252.295-.085.081-.173.173-.074.34.098.168.436.714.937 1.157.643.57 1.186.746 1.354.83.17.084.267.07.365-.041.099-.113.422-.489.534-.657.112-.166.225-.14.38-.084.153.056.982.46 1.15.545.169.083.28.125.323.196.042.068.042.403-.098.793z"/></g></g></svg>