<svg xmlns="http://www.w3.org/2000/svg" width="12" height="12" viewBox="0 0 12 12"><g><g><path fill="#fff" d="M10.383 5.058a.894.894 0 0 0-.001.127c.006.175.019.535-.388.596a.88.88 0 0 1-.116.008c-.436 0-.461-.395-.473-.585a1.461 1.461 0 0 0-.013-.139c-.27-1.59-.825-2.153-2.472-2.511-.04-.01-.09-.016-.14-.023-.176-.023-.395-.051-.52-.217a.462.462 0 0 1-.073-.372c.027-.154.127-.41.503-.41.095 0 .189.013.28.028.041.007.081.016.117.018 1.833.214 3.312 1.767 3.298 3.458l-.002.022zM5.986.489C5.997.306 6.081 0 6.525 0c.05 0 .1.004.144.007.036.002.07.004.098.004H6.8a.206.206 0 0 1 .033-.004c2.785.092 5.198 2.554 5.163 5.27 0 .036.002.078.004.122.008.18.018.405-.13.555a.476.476 0 0 1-.352.131h-.015c-.476-.009-.483-.44-.486-.648a1.52 1.52 0 0 0-.008-.16C10.664 2.623 9.421 1.375 6.717.97 6.678.963 6.632.96 6.583.957 6.381.942 5.961.913 5.986.489zm5.572 9.764c-.338.93-1.44 1.746-2.357 1.746h-.016a.178.178 0 0 1-.049-.006 2.313 2.313 0 0 0-.114-.025c-.135-.03-.32-.071-.495-.145-1.951-.818-3.635-1.907-5.005-3.236-1.4-1.36-2.51-3.005-3.299-4.894C-.05 3.04-.062 2.412.19 1.877.45 1.323.973.905 1.7.667a1.26 1.26 0 0 1 .838.002c.633.227 2.135 2.223 2.172 2.886.033.585-.428.889-.676 1.053-.436.289-.517.644-.269 1.186.513 1.123 1.41 1.975 2.666 2.529.156.07.298.104.424.104.212 0 .384-.102.526-.312.32-.472.709-.712 1.153-.712.331 0 .68.128 1.07.395.063.045.126.086.189.13a16.286 16.286 0 0 1 1.086.78c.434.325.976.728.68 1.545zM8.243 3.69c.379.376.601.846.596 1.261.014.396-.134.616-.44.65-.02.002-.04.004-.058.004-.255 0-.453-.201-.483-.487-.063-.615-.38-.948-.995-1.044-.17-.026-.356-.075-.453-.233-.067-.108-.073-.24-.02-.39.115-.326.442-.334.6-.337.416-.012.873.202 1.253.576z"/></g></g></svg>