<svg xmlns="http://www.w3.org/2000/svg" width="14" height="9" viewBox="0 0 14 9"><g><g><path fill="#4a76a9" d="M12.054 5.719c.464.514.954.999 1.37 1.566.185.25.359.51.492.803.189.415.018.874-.31.897h-2.04c-.526.05-.945-.192-1.298-.6-.282-.325-.544-.674-.816-1.01a2.015 2.015 0 0 0-.367-.373c-.278-.204-.52-.14-.679.19-.162.335-.199.704-.214 1.08-.022.544-.167.689-.65.712-1.03.056-2.01-.12-2.918-.712-.802-.52-1.423-1.255-1.964-2.087C1.607 4.565.8 2.785.076.956-.087.542.032.323.433.316 1.098.298 1.763.299 2.429.314c.27.004.45.18.554.47.36 1.005.8 1.96 1.353 2.846.148.237.298.472.512.638.236.185.416.123.527-.175a2.23 2.23 0 0 0 .118-.598c.053-.698.06-1.397-.033-2.093-.057-.434-.272-.716-.654-.798C4.61.563 4.64.48 4.734.354 4.898.135 5.052 0 5.36 0h2.305c.362.08.443.265.493.68l.002 2.907c-.004.16.07.636.325.743.204.075.338-.11.46-.257.552-.665.946-1.452 1.298-2.265.156-.356.29-.729.42-1.1.097-.277.248-.412.522-.406l2.218.003c.066 0 .132.001.196.014.374.073.476.255.36.669-.181.65-.535 1.192-.881 1.736-.37.581-.766 1.143-1.133 1.728-.337.533-.31.802.109 1.266z"/></g></g></svg>