<svg xmlns="http://www.w3.org/2000/svg" width="14" height="14" viewBox="0 0 14 14"><g><g><path d="M14 4.066v5.868A4.071 4.071 0 0 1 9.933 14H4.067A4.072 4.072 0 0 1 0 9.934V4.066A4.072 4.072 0 0 1 4.067-.001h5.866A4.071 4.071 0 0 1 14 4.066zm-1.094 0a2.976 2.976 0 0 0-2.973-2.972H4.067a2.976 2.976 0 0 0-2.973 2.972v5.868a2.977 2.977 0 0 0 2.973 2.973h5.866a2.977 2.977 0 0 0 2.973-2.973zM10.773 7A3.778 3.778 0 0 1 7 10.773 3.778 3.778 0 0 1 3.227 7 3.777 3.777 0 0 1 7 3.227 3.777 3.777 0 0 1 10.773 7zM9.68 7A2.683 2.683 0 0 0 7 4.32 2.683 2.683 0 0 0 4.32 7 2.683 2.683 0 0 0 7 9.68 2.683 2.683 0 0 0 9.68 7zm1.148-4.375a.548.548 0 1 1-.002 1.096.548.548 0 0 1 .002-1.096z"/><path fill="#be7dd1" d="M14 4.066v5.868A4.071 4.071 0 0 1 9.933 14H4.067A4.072 4.072 0 0 1 0 9.934V4.066A4.072 4.072 0 0 1 4.067-.001h5.866A4.071 4.071 0 0 1 14 4.066zm-1.094 0a2.976 2.976 0 0 0-2.973-2.972H4.067a2.976 2.976 0 0 0-2.973 2.972v5.868a2.977 2.977 0 0 0 2.973 2.973h5.866a2.977 2.977 0 0 0 2.973-2.973zM10.773 7A3.778 3.778 0 0 1 7 10.773 3.778 3.778 0 0 1 3.227 7 3.777 3.777 0 0 1 7 3.227 3.777 3.777 0 0 1 10.773 7zM9.68 7A2.683 2.683 0 0 0 7 4.32 2.683 2.683 0 0 0 4.32 7 2.683 2.683 0 0 0 7 9.68 2.683 2.683 0 0 0 9.68 7zm1.148-4.375a.548.548 0 1 1-.002 1.096.548.548 0 0 1 .002-1.096z"/></g></g></svg>