<svg xmlns="http://www.w3.org/2000/svg" width="14" height="14" viewBox="0 0 14 14"><g><g opacity=".5"><path d="M14.018 7a6.95 6.95 0 0 1-2.051 4.949 6.952 6.952 0 0 1-4.95 2.05 6.952 6.952 0 0 1-4.949-2.05A6.951 6.951 0 0 1 .018 7c0-1.87.728-3.628 2.05-4.95A6.952 6.952 0 0 1 7.018 0c1.87 0 3.627.728 4.949 2.05A6.955 6.955 0 0 1 14.017 7zm-.438 0a6.52 6.52 0 0 0-1.922-4.64A6.52 6.52 0 0 0 7.018.437c-1.753 0-3.401.682-4.64 1.921A6.52 6.52 0 0 0 .454 7.001c0 1.752.683 3.4 1.922 4.639a6.511 6.511 0 0 0 4.64 1.921c1.753 0 3.401-.68 4.64-1.921A6.518 6.518 0 0 0 13.58 7zM8.797 4.104c.416.378.626.912.626 1.586 0 .67-.21 1.205-.626 1.582-.593.543-1.434.61-1.816.61-.117 0-.19-.005-.202-.006H5.486v.875h1.531v.437h-1.53V10.5h-.438V9.187h-.875V8.75h.875v-.875h-.875v-.438h.875V3.5h1.75c.03-.004 1.225-.103 1.998.603zm.19 1.586c0-.546-.164-.97-.485-1.264-.632-.575-1.673-.49-1.684-.488H5.486v3.5H6.8c.03.002 1.076.087 1.705-.489.32-.294.482-.717.482-1.26z"/></g></g></svg>